<svg width="64" height="65" viewBox="0 0 64 65" fill="none" xmlns="http://www.w3.org/2000/svg">
<path d="M19.9999 29.5985H12.2666C10.7731 29.5985 10.0264 29.5985 9.45594 29.8891C8.95418 30.1448 8.54623 30.5527 8.29057 31.0545C7.99992 31.6249 7.99992 32.3717 7.99992 33.8651V56.2651M43.9999 29.5985H51.7333C53.2267 29.5985 53.9735 29.5985 54.5439 29.8891C55.0457 30.1448 55.4536 30.5527 55.7093 31.0545C55.9999 31.6249 55.9999 32.3717 55.9999 33.8651V56.2651M43.9999 56.2651V16.7985C43.9999 13.8115 43.9999 12.3181 43.4186 11.1772C42.9073 10.1737 42.0914 9.35776 41.0879 8.84644C39.947 8.26514 38.4535 8.26514 35.4666 8.26514H28.5333C25.5463 8.26514 24.0528 8.26514 22.912 8.84644C21.9084 9.35776 21.0925 10.1737 20.5812 11.1772C19.9999 12.3181 19.9999 13.8115 19.9999 16.7985V56.2651M58.6666 56.2651H5.33325M29.3333 18.9318H34.6666M29.3333 29.5985H34.6666M29.3333 40.2651H34.6666" stroke="white" stroke-width="2" stroke-linecap="round" stroke-linejoin="round"/>
</svg>
