<svg width="64" height="65" viewBox="0 0 64 65" fill="none" xmlns="http://www.w3.org/2000/svg">
<path d="M55.9999 8.50016L39.9999 8.50016M55.9999 19.1668L39.9999 19.1668M55.9999 29.8335L39.9999 29.8335M14.6666 37.1876V12.5002C14.6666 8.81826 17.6514 5.8335 21.3333 5.8335C25.0152 5.8335 27.9999 8.81826 27.9999 12.5002V37.1876C31.2159 39.3403 33.3333 43.0063 33.3333 47.1668C33.3333 53.7942 27.9607 59.1668 21.3333 59.1668C14.7058 59.1668 9.33325 53.7942 9.33325 47.1668C9.33325 43.0063 11.4506 39.3403 14.6666 37.1876ZM23.9999 47.1668C23.9999 48.6396 22.806 49.8335 21.3333 49.8335C19.8605 49.8335 18.6666 48.6396 18.6666 47.1668C18.6666 45.6941 19.8605 44.5002 21.3333 44.5002C22.806 44.5002 23.9999 45.6941 23.9999 47.1668Z" stroke="white" stroke-width="2" stroke-linecap="round" stroke-linejoin="round"/>
</svg>
