<svg width="64" height="65" viewBox="0 0 64 65" fill="none" xmlns="http://www.w3.org/2000/svg">
<path d="M42.6666 43.1668V50.6335C42.6666 53.6204 42.6666 55.1139 42.0853 56.2548C41.574 57.2583 40.7581 58.0742 39.7545 58.5855C38.6137 59.1668 37.1202 59.1668 34.1333 59.1668H13.8666C10.8796 59.1668 9.38617 59.1668 8.2453 58.5855C7.24177 58.0742 6.42588 57.2583 5.91455 56.2548C5.33325 55.1139 5.33325 53.6204 5.33325 50.6335V30.3668C5.33325 27.3799 5.33325 25.8864 5.91455 24.7455C6.42588 23.742 7.24177 22.9261 8.2453 22.4148C9.38617 21.8335 10.8796 21.8335 13.8666 21.8335H21.3333M29.8666 43.1668H50.1333C53.1202 43.1668 54.6137 43.1668 55.7545 42.5855C56.7581 42.0742 57.574 41.2583 58.0853 40.2548C58.6666 39.1139 58.6666 37.6204 58.6666 34.6335V14.3668C58.6666 11.3799 58.6666 9.88641 58.0853 8.74555C57.574 7.74202 56.7581 6.92612 55.7545 6.41479C54.6137 5.8335 53.1202 5.8335 50.1333 5.8335H29.8666C26.8796 5.8335 25.3862 5.8335 24.2453 6.41479C23.2418 6.92612 22.4259 7.74202 21.9146 8.74555C21.3333 9.88641 21.3333 11.3799 21.3333 14.3668V34.6335C21.3333 37.6204 21.3333 39.1139 21.9146 40.2548C22.4259 41.2583 23.2418 42.0742 24.2453 42.5855C25.3862 43.1668 26.8796 43.1668 29.8666 43.1668Z" stroke="white" stroke-width="2" stroke-linecap="round" stroke-linejoin="round"/>
</svg>
