<svg width="64" height="64" viewBox="0 0 64 64" fill="none" xmlns="http://www.w3.org/2000/svg">
<path d="M8 32H56M32 8V56M20.8 8H43.2C47.6804 8 49.9206 8 51.6319 8.87195C53.1372 9.63893 54.3611 10.8628 55.1281 12.3681C56 14.0794 56 16.3196 56 20.8V43.2C56 47.6804 56 49.9206 55.1281 51.6319C54.3611 53.1372 53.1372 54.3611 51.6319 55.1281C49.9206 56 47.6804 56 43.2 56H20.8C16.3196 56 14.0794 56 12.3681 55.1281C10.8628 54.3611 9.63893 53.1372 8.87195 51.6319C8 49.9206 8 47.6804 8 43.2V20.8C8 16.3196 8 14.0794 8.87195 12.3681C9.63893 10.8628 10.8628 9.63893 12.3681 8.87195C14.0794 8 16.3196 8 20.8 8Z" stroke="white" stroke-width="2" stroke-linecap="round" stroke-linejoin="round"/>
</svg>
